<svg xmlns="http://www.w3.org/2000/svg" width="180" height="60" viewBox="0 0 180 60"><title>download-ios</title><g fill="none" fill-rule="nonzero"><path fill="#000" d="M165.206 0H14.302c-.55 0-1.095 0-1.642.003-.46.003-.915.012-1.379.02a19.823 19.823 0 0 0-3.006.262 9.998 9.998 0 0 0-2.85.94 9.657 9.657 0 0 0-2.43 1.77 9.387 9.387 0 0 0-1.765 2.43A9.902 9.902 0 0 0 .292 8.28a19.49 19.49 0 0 0-.268 3.003c-.015.46-.015.923-.023 1.382V47.34c.008.465.009.915.023 1.382.012 1.006.102 2.01.27 3.003.164.994.48 1.958.936 2.857a9.312 9.312 0 0 0 1.767 2.418 9.411 9.411 0 0 0 2.427 1.769c.897.456 1.859.775 2.851.945.994.163 1.999.252 3.006.265.465.011.92.017 1.379.017.549.003 1.092.003 1.642.003h150.904c.54 0 1.086 0 1.626-.003.456 0 .926-.006 1.383-.015a19.919 19.919 0 0 0 3-.267c.996-.172 1.96-.49 2.862-.945a9.416 9.416 0 0 0 2.426-1.769 9.593 9.593 0 0 0 1.773-2.42c.453-.9.766-1.864.928-2.858.167-.993.26-1.997.278-3.003.006-.465.006-.915.006-1.382.012-.546.012-1.087.012-1.64V14.303c0-.549 0-1.095-.012-1.638 0-.459 0-.92-.006-1.38a20.261 20.261 0 0 0-.278-3.004 9.927 9.927 0 0 0-.93-2.855 9.7 9.7 0 0 0-4.197-4.2 10.152 10.152 0 0 0-2.862-.94 19.566 19.566 0 0 0-3-.264c-.457-.008-.927-.017-1.383-.02C166.292 0 165.745 0 165.206 0Z"/><path fill="#FFF" d="M12.667 58.689c-.457 0-.903-.006-1.356-.015a19.031 19.031 0 0 1-2.805-.246 8.826 8.826 0 0 1-2.484-.822 8.11 8.11 0 0 1-2.095-1.524 7.98 7.98 0 0 1-1.53-2.096 8.583 8.583 0 0 1-.816-2.485c-.155-.93-.238-1.87-.25-2.813-.01-.315-.022-1.37-.022-1.37v-34.65s.014-1.038.023-1.343c.01-.94.093-1.88.247-2.808a8.633 8.633 0 0 1 .816-2.493 8.06 8.06 0 0 1 1.523-2.097A8.348 8.348 0 0 1 6.02 2.393a8.735 8.735 0 0 1 2.48-.816 18.88 18.88 0 0 1 2.813-.246l1.353-.018h154.158l1.37.019c.933.01 1.865.092 2.786.243a8.907 8.907 0 0 1 2.507.822 8.391 8.391 0 0 1 3.622 3.63c.391.78.662 1.613.803 2.474.156.936.243 1.882.261 2.83.004.425.004.882.004 1.335.012.563.012 1.098.012 1.638V45.7c0 .544 0 1.077-.012 1.612 0 .488 0 .935-.006 1.395-.017.932-.102 1.86-.255 2.78a8.609 8.609 0 0 1-.81 2.505 8.22 8.22 0 0 1-1.524 2.079 8.12 8.12 0 0 1-2.1 1.533c-.788.399-1.631.677-2.502.825-.927.151-1.864.233-2.803.244-.44.011-.9.017-1.346.017l-1.626.003-152.539-.003Z"/><g fill="#000"><path d="M37.496 29.836a7.72 7.72 0 0 1 3.675-6.477 7.902 7.902 0 0 0-6.225-3.367c-2.62-.274-5.16 1.568-6.495 1.568-1.36 0-3.414-1.54-5.628-1.495a8.29 8.29 0 0 0-6.976 4.255c-3.018 5.223-.768 12.9 2.123 17.122 1.444 2.067 3.135 4.377 5.346 4.294 2.163-.09 2.972-1.38 5.583-1.38 2.588 0 3.345 1.38 5.601 1.33 2.322-.04 3.785-2.078 5.18-4.165a17.1 17.1 0 0 0 2.37-4.824 7.46 7.46 0 0 1-4.554-6.863v.002Zm-4.262-12.62a7.6 7.6 0 0 0 1.74-5.445 7.733 7.733 0 0 0-5.004 2.589 7.232 7.232 0 0 0-1.785 5.242c1.96.02 3.821-.859 5.05-2.386ZM63.454 40.711h-7.101l-1.704 5.034H51.64l6.725-18.627h3.125l6.726 18.627h-3.06l-1.703-5.034Zm-6.365-2.325h5.629l-2.776-8.17h-.078l-2.775 8.17Zm25.653.57c0 4.22-2.261 6.93-5.67 6.93a4.605 4.605 0 0 1-4.273-2.374h-.064v6.726h-2.787V32.164h2.698v2.259h.051a4.818 4.818 0 0 1 4.325-2.4c3.447 0 5.718 2.724 5.718 6.933h.002Zm-2.867 0c0-2.75-1.42-4.557-3.59-4.557-2.13 0-3.562 1.845-3.562 4.557 0 2.736 1.434 4.57 3.562 4.57 2.17 0 3.59-1.796 3.59-4.57Zm17.814 0c0 4.22-2.26 6.93-5.67 6.93a4.605 4.605 0 0 1-4.272-2.374h-.064v6.726h-2.787V32.164h2.698v2.259h.051a4.818 4.818 0 0 1 4.325-2.4c3.445 0 5.72 2.724 5.72 6.933Zm-2.866 0c0-2.75-1.42-4.557-3.59-4.557-2.13 0-3.562 1.845-3.562 4.557 0 2.736 1.432 4.57 3.562 4.57 2.17 0 3.59-1.796 3.59-4.57Zm12.744 1.599c.206 1.848 2 3.06 4.452 3.06 2.35 0 4.041-1.212 4.041-2.878 0-1.447-1.02-2.31-3.435-2.905l-2.413-.582c-3.42-.825-5.009-2.425-5.009-5.022 0-3.213 2.8-5.42 6.777-5.42 3.938 0 6.636 2.207 6.726 5.42h-2.814c-.168-1.858-1.704-2.98-3.95-2.98-2.248 0-3.782 1.135-3.782 2.787 0 1.317.98 2.092 3.382 2.685l2.052.504c3.822.904 5.408 2.439 5.408 5.165 0 3.484-2.775 5.667-7.19 5.667-4.13 0-6.92-2.13-7.1-5.501h2.855Zm17.455-11.604v3.213h2.583v2.208h-2.583v7.487c0 1.164.517 1.705 1.653 1.705.306-.005.612-.027.916-.064v2.194a7.656 7.656 0 0 1-1.548.13c-2.75 0-3.822-1.034-3.822-3.668v-7.784h-1.974v-2.208h1.974V28.95h2.8Zm4.077 10.005c0-4.274 2.517-6.959 6.44-6.959 3.938 0 6.444 2.685 6.444 6.959 0 4.284-2.492 6.957-6.443 6.957-3.95 0-6.441-2.673-6.441-6.957Zm10.042 0c0-2.931-1.342-4.662-3.601-4.662-2.26 0-3.602 1.743-3.602 4.662 0 2.943 1.343 4.66 3.6 4.66 2.258 0 3.603-1.717 3.603-4.66Zm5.14-6.792h2.66v2.311h.062a3.24 3.24 0 0 1 3.266-2.452 4.3 4.3 0 0 1 .955.103v2.607a3.897 3.897 0 0 0-1.252-.168 2.81 2.81 0 0 0-2.906 3.125v8.055h-2.787l.002-13.581Zm19.797 9.593c-.375 2.464-2.775 4.156-5.847 4.156-3.951 0-6.404-2.646-6.404-6.893 0-4.26 2.466-7.023 6.285-7.023 3.76 0 6.12 2.58 6.12 6.7v.955h-9.59v.168a3.537 3.537 0 0 0 3.653 3.846 3.072 3.072 0 0 0 3.136-1.91h2.647Zm-9.423-4.054h6.789a3.266 3.266 0 0 0-3.33-3.447 3.438 3.438 0 0 0-3.46 3.447Z"/></g><path fill="#000" d="M56.74 13.097a3.96 3.96 0 0 1 4.212 4.447c0 2.86-1.545 4.504-4.212 4.504h-3.233v-8.953l3.233.002Zm-1.842 7.685h1.687a2.814 2.814 0 0 0 2.951-3.22 2.822 2.822 0 0 0-2.95-3.2h-1.688v6.42Zm7.623-2.116a3.2 3.2 0 1 1 6.372 0 3.201 3.201 0 1 1-6.37 0h-.002Zm5.001 0c0-1.464-.658-2.32-1.812-2.32-1.16 0-1.81.856-1.81 2.32 0 1.477.65 2.326 1.81 2.326 1.155 0 1.812-.855 1.812-2.326Zm9.839 3.382h-1.383l-1.395-4.976h-.105l-1.39 4.976h-1.37l-1.863-6.755h1.353l1.209 5.154h.1l1.39-5.154h1.277l1.39 5.154h.104l1.205-5.154h1.333l-1.855 6.755Zm3.422-6.755h1.282v1.072h.1a2.022 2.022 0 0 1 2.015-1.203 2.198 2.198 0 0 1 2.339 2.513v4.373h-1.334v-4.039c0-1.086-.47-1.626-1.458-1.626a1.55 1.55 0 0 0-1.612 1.712v3.953h-1.332v-6.755Zm7.86-2.637h1.332v9.39h-1.332v-9.39Zm3.186 6.01a3.2 3.2 0 1 1 6.37 0 3.201 3.201 0 1 1-6.37 0Zm5 0c0-1.464-.66-2.32-1.813-2.32-1.16 0-1.81.856-1.81 2.32 0 1.477.65 2.326 1.81 2.326 1.155 0 1.812-.855 1.812-2.326Zm2.773 1.47c0-1.215.906-1.917 2.514-2.016l1.83-.105v-.583c0-.713-.472-1.116-1.383-1.116-.745 0-1.26.273-1.408.75h-1.29c.135-1.16 1.227-1.905 2.76-1.905 1.692 0 2.647.844 2.647 2.27v4.617h-1.282v-.95h-.105a2.273 2.273 0 0 1-2.03 1.06 2.04 2.04 0 0 1-2.252-2.021h-.001Zm4.343-.576v-.565l-1.65.105c-.93.063-1.35.38-1.35.975 0 .608.526.96 1.25.96a1.593 1.593 0 0 0 1.75-1.475Zm3.08-.894c0-2.134 1.097-3.486 2.804-3.486a2.226 2.226 0 0 1 2.07 1.185h.1v-3.71h1.333v9.391h-1.277v-1.065h-.105a2.345 2.345 0 0 1-2.122 1.178c-1.718 0-2.804-1.352-2.804-3.493Zm1.376 0c0 1.433.675 2.296 1.805 2.296 1.125 0 1.818-.875 1.818-2.29 0-1.407-.702-2.295-1.818-2.295-1.122 0-1.805.87-1.805 2.29Zm10.446 0a3.2 3.2 0 1 1 6.371 0 3.201 3.201 0 1 1-6.37 0Zm5 0c0-1.464-.657-2.32-1.812-2.32-1.158 0-1.81.856-1.81 2.32 0 1.477.652 2.326 1.81 2.326 1.155 0 1.812-.855 1.812-2.326Zm3.16-3.373h1.283v1.072h.1a2.022 2.022 0 0 1 2.015-1.203 2.198 2.198 0 0 1 2.339 2.513v4.373h-1.334v-4.039c0-1.086-.47-1.626-1.458-1.626a1.55 1.55 0 0 0-1.612 1.712v3.953h-1.334l.002-6.755Zm13.269-1.682v1.712h1.464v1.123h-1.464v3.473c0 .708.29 1.019.955 1.019.17-.001.34-.012.509-.032v1.11c-.24.043-.483.066-.726.07-1.483 0-2.072-.523-2.072-1.825v-3.815h-1.073v-1.123h1.073V13.61h1.334Zm3.285-.955h1.32v3.721h.105a2.08 2.08 0 0 1 2.06-1.209 2.225 2.225 0 0 1 2.326 2.519v4.36h-1.334v-4.032c0-1.08-.502-1.626-1.444-1.626a1.578 1.578 0 0 0-1.701 1.713v3.946h-1.332v-9.392Zm13.584 7.568a2.742 2.742 0 0 1-2.925 1.954 3.068 3.068 0 0 1-3.122-3.488 3.116 3.116 0 0 1 3.114-3.528c1.88 0 3.014 1.284 3.014 3.405v.465h-4.77v.075a1.785 1.785 0 0 0 1.8 1.936 1.62 1.62 0 0 0 1.605-.82h1.284Zm-4.69-2.177h3.413a1.629 1.629 0 0 0-1.663-1.75 1.728 1.728 0 0 0-1.75 1.75Z"/></g></svg>